<?xml version="1.0" standalone="no"?>
<!DOCTYPE svg PUBLIC "-//W3C//DTD SVG 20010904//EN"
 "http://www.w3.org/TR/2001/REC-SVG-20010904/DTD/svg10.dtd">
<svg version="1.0" xmlns="http://www.w3.org/2000/svg"
 width="800.000000pt" height="600.000000pt" viewBox="0 0 800.000000 600.000000"
 preserveAspectRatio="xMidYMid meet">

<g transform="translate(0.000000,600.000000) scale(0.100000,-0.100000)"
fill="#E16D3C" stroke="none">
<path d="M5032 3708 c-20 -20 -14 -45 16 -66 15 -10 84 -50 155 -87 70 -38
126 -69 124 -71 -1 -2 -20 1 -42 6 -138 31 -425 35 -593 9 -142 -22 -352 -108
-495 -203 l-69 -45 -48 24 c-27 14 -86 36 -132 49 -272 79 -603 14 -933 -182
-222 -131 -445 -372 -570 -615 -55 -108 -57 -140 -12 -195 l33 -39 39 86 c96
209 197 363 318 483 178 176 395 299 646 365 81 22 118 26 241 26 131 1 153
-2 225 -26 121 -41 119 -36 44 -114 -118 -122 -189 -263 -189 -376 0 -59 29
-187 56 -243 82 -173 241 -230 403 -144 75 40 114 83 155 170 26 56 31 79 34
166 7 170 -47 319 -159 438 -68 73 -70 66 46 134 85 50 229 106 327 129 113
26 359 23 523 -6 72 -12 133 -26 137 -29 4 -4 -58 -25 -138 -46 -154 -42 -183
-60 -163 -98 5 -10 19 -18 30 -18 22 0 451 113 502 133 34 12 60 48 51 71 -13
35 -493 326 -537 326 -7 0 -18 -5 -25 -12z m-841 -635 c96 -90 149 -219 149
-362 0 -104 -20 -167 -72 -226 -65 -73 -186 -102 -246 -58 -80 59 -127 169
-127 299 0 73 4 87 38 157 25 51 62 102 113 156 42 45 80 81 85 81 6 0 32 -21
60 -47z"/>
</g>
</svg>
