<svg version="1.1" id="Layer_1" xmlns="http://www.w3.org/2000/svg" xmlns:xlink="http://www.w3.org/1999/xlink" x="0px" y="0px"
	 width="100%" viewBox="0 0 800 592" enable-background="new 0 0 800 592" xml:space="preserve">
<path fill="#E16D3C" opacity="1.000000" stroke="none" 
	d="
M402.489349,317.221436 
	C393.035583,307.887878 384.761963,298.048981 381.351501,285.239563 
	C376.753387,267.969360 381.197540,252.427063 392.611084,239.199387 
	C401.473969,228.927750 418.577240,228.889816 430.924988,238.292191 
	C440.093323,245.273575 444.337280,254.865570 445.393005,266.197174 
	C446.901001,282.382202 442.400757,296.826874 433.095978,309.872589 
	C430.621338,313.342163 427.427948,316.299133 424.212585,319.883850 
	C456.971680,344.158508 492.829681,345.130554 531.326111,335.876526 
	C523.247375,333.554810 516.130859,331.506683 509.011444,329.468658 
	C508.372284,329.285645 507.697083,329.220276 507.067993,329.011688 
	C503.834900,327.939697 500.159607,326.855743 501.450531,322.375427 
	C502.699707,318.039825 506.308960,319.206909 509.372650,320.040314 
	C521.892029,323.445831 534.386902,326.941376 546.899048,330.373566 
	C549.619507,331.119751 552.409485,331.626068 555.103333,332.451965 
	C557.922180,333.316223 560.380920,334.858337 560.895996,338.040894 
	C561.439087,341.397095 559.044556,343.166168 556.639709,344.764740 
	C544.297058,352.969360 532.146912,361.488770 518.673950,367.841431 
	C516.419006,368.904663 514.263306,370.189087 512.108215,371.450592 
	C509.114990,373.202667 505.849762,375.139191 503.483643,371.086121 
	C501.085297,366.977875 504.573242,365.019592 507.478516,363.381012 
	C512.699524,360.436371 518.062744,357.744843 523.346069,354.909454 
	C525.482605,353.762817 527.565369,352.516113 529.530151,351.029602 
	C513.035339,352.287811 496.770020,353.897827 480.240845,352.598785 
	C462.919586,351.237488 446.987549,346.258911 431.944061,337.967468 
	C426.702209,335.078308 421.654266,331.824799 416.617035,328.583405 
	C414.814484,327.423492 413.433258,326.803131 411.214417,327.946472 
	C384.750671,341.583679 357.627258,339.650024 330.892303,329.669525 
	C294.117371,315.940948 265.909760,291.678833 246.706741,257.241150 
	C245.652664,255.350800 244.593399,253.456177 243.674942,251.498611 
	C238.478989,240.424088 239.607834,236.812164 247.796021,229.840530 
	C251.677139,237.423889 254.952835,245.201569 258.891418,252.658463 
	C279.991760,292.607605 313.101654,316.186310 357.011047,325.062012 
	C371.329651,327.956390 385.517792,327.085693 399.158600,321.451813 
	C400.705750,320.812805 404.122284,321.059967 402.489349,317.221436 
M430.892181,254.679993 
	C429.783783,253.020203 428.822601,251.236023 427.542603,249.721222 
	C420.354279,241.214111 406.942474,239.243958 400.541901,246.440964 
	C392.428131,255.564362 388.899109,266.748901 391.132904,278.833191 
	C393.502441,291.651733 401.847565,301.093658 410.979309,309.884033 
	C413.644745,312.449768 415.442413,312.176575 418.100250,309.918213 
	C431.627563,298.424103 440.260834,273.319550 430.892181,254.679993 
z"/>
</svg>